<svg xmlns="http://www.w3.org/2000/svg" width="40" height="40" viewBox="0 0 40 40" fill="none">
  <path d="M8.33333 8.33333V31.6667H31.6667V8.33333H8.33333ZM30 30H10V10H30V30Z" fill="#FFB400"/>
  <path d="M15 15H25V25H15V15ZM23.3333 23.3333V16.6667H16.6667V23.3333H23.3333Z" fill="#FFB400"/>
  <path d="M31.6667 3.33333H8.33333C5.58333 3.33333 3.33333 5.58333 3.33333 8.33333V31.6667C3.33333 34.4167 5.58333 36.6667 8.33333 36.6667H31.6667C34.4167 36.6667 36.6667 34.4167 36.6667 31.6667V8.33333C36.6667 5.58333 34.4167 3.33333 31.6667 3.33333ZM35 31.6667C35 33.5 33.5 35 31.6667 35H8.33333C6.5 35 5 33.5 5 31.6667V8.33333C5 6.5 6.5 5 8.33333 5H31.6667C33.5 5 35 6.5 35 8.33333V31.6667Z" fill="#FFB400"/>
</svg>
