<svg xmlns="http://www.w3.org/2000/svg" width="40" height="40" viewBox="0 0 40 40" fill="none">
  <path d="M20 3.33333C10.8 3.33333 3.33333 10.8 3.33333 20C3.33333 29.2 10.8 36.6667 20 36.6667C29.2 36.6667 36.6667 29.2 36.6667 20C36.6667 10.8 29.2 3.33333 20 3.33333ZM20 33.3333C12.65 33.3333 6.66667 27.35 6.66667 20C6.66667 12.65 12.65 6.66667 20 6.66667C27.35 6.66667 33.3333 12.65 33.3333 20C33.3333 27.35 27.35 33.3333 20 33.3333Z" fill="#FFB400"/>
  <path d="M21.6667 13.3333H18.3333V20H21.6667V13.3333Z" fill="#FFB400"/>
  <path d="M21.6667 23.3333H18.3333V26.6667H21.6667V23.3333Z" fill="#FFB400"/>
</svg>
